<svg xmlns="http://www.w3.org/2000/svg" width="1400" height="560" viewBox="0 0 1400 560">
  <defs>
    <linearGradient id="bg" x1="0%" y1="0%" x2="100%" y2="100%">
      <stop offset="0%" style="stop-color:#065F46"/>
      <stop offset="100%" style="stop-color:#064E3B"/>
    </linearGradient>
  </defs>
  <!-- Background -->
  <rect width="1400" height="560" fill="url(#bg)"/>
  <!-- QR+Clock icon scaled to ~160px -->
  <g transform="translate(440, 190)">
    <!-- QR finder patterns -->
    <rect x="0" y="0" width="50" height="50" fill="#059669"/>
    <rect x="8" y="8" width="34" height="34" fill="#ffffff"/>
    <rect x="16" y="16" width="18" height="18" fill="#059669"/>

    <rect x="110" y="0" width="50" height="50" fill="#059669"/>
    <rect x="118" y="8" width="34" height="34" fill="#ffffff"/>
    <rect x="126" y="16" width="18" height="18" fill="#059669"/>

    <rect x="0" y="110" width="50" height="50" fill="#059669"/>
    <rect x="8" y="118" width="34" height="34" fill="#ffffff"/>
    <rect x="16" y="126" width="18" height="18" fill="#059669"/>

    <!-- Data pixels -->
    <rect x="58" y="8" width="10" height="10" fill="#059669"/>
    <rect x="78" y="8" width="10" height="10" fill="#059669"/>
    <rect x="58" y="28" width="10" height="10" fill="#059669"/>
    <rect x="78" y="28" width="10" height="10" fill="#059669"/>
    <rect x="8" y="58" width="10" height="10" fill="#059669"/>
    <rect x="28" y="58" width="10" height="10" fill="#059669"/>
    <rect x="8" y="78" width="10" height="10" fill="#059669"/>
    <rect x="28" y="78" width="10" height="10" fill="#059669"/>
    <rect x="58" y="58" width="10" height="10" fill="#059669"/>
    <rect x="78" y="58" width="10" height="10" fill="#059669"/>
    <rect x="58" y="78" width="10" height="10" fill="#059669"/>
    <rect x="78" y="78" width="10" height="10" fill="#059669"/>
    <rect x="98" y="58" width="10" height="10" fill="#059669" opacity="0.7"/>
    <rect x="58" y="98" width="10" height="10" fill="#059669" opacity="0.7"/>

    <!-- Clock -->
    <circle cx="130" cy="130" r="28" fill="#ffffff"/>
    <circle cx="130" cy="130" r="22" fill="#059669"/>
    <circle cx="130" cy="130" r="16" fill="none" stroke="#ffffff" stroke-width="3"/>
    <line x1="130" y1="130" x2="130" y2="119" stroke="#ffffff" stroke-width="3" stroke-linecap="round"/>
    <line x1="130" y1="130" x2="140" y2="133" stroke="#ffffff" stroke-width="3" stroke-linecap="round"/>
    <circle cx="130" cy="130" r="2.5" fill="#ffffff"/>
  </g>
  <!-- Text -->
  <text x="700" y="265" font-family="-apple-system, BlinkMacSystemFont, 'Segoe UI', Roboto, sans-serif" font-size="44" font-weight="700" fill="#ffffff" text-anchor="start">AuthVault 2FA</text>
  <text x="700" y="310" font-family="-apple-system, BlinkMacSystemFont, 'Segoe UI', Roboto, sans-serif" font-size="24" fill="rgba(255,255,255,0.7)" text-anchor="start">OTP Autofill for Ente Auth</text>
  <text x="700" y="365" font-family="-apple-system, BlinkMacSystemFont, 'Segoe UI', Roboto, sans-serif" font-size="18" fill="rgba(255,255,255,0.5)" text-anchor="start">Secure 2FA autofill directly in your browser</text>
</svg>
