<svg xmlns="http://www.w3.org/2000/svg" width="440" height="280" viewBox="0 0 440 280">
  <defs>
    <linearGradient id="bg" x1="0%" y1="0%" x2="100%" y2="100%">
      <stop offset="0%" style="stop-color:#065F46"/>
      <stop offset="100%" style="stop-color:#064E3B"/>
    </linearGradient>
    <linearGradient id="lock" x1="0%" y1="0%" x2="100%" y2="100%">
      <stop offset="0%" style="stop-color:#059669"/>
      <stop offset="100%" style="stop-color:#10B981"/>
    </linearGradient>
  </defs>
  <!-- Background -->
  <rect width="440" height="280" fill="url(#bg)"/>
  <!-- Lock icon -->
  <g transform="translate(130, 70)">
    <rect x="17" y="40" width="46" height="38" rx="9" fill="url(#lock)"/>
    <path d="M27 40 L27 30 C27 21 33 16 40 16 C47 16 53 21 53 30 L53 40" fill="none" stroke="url(#lock)" stroke-width="6" stroke-linecap="round"/>
    <circle cx="34" cy="59" r="3" fill="#fff" opacity="0.95"/>
    <circle cx="40" cy="59" r="3" fill="#fff" opacity="0.95"/>
    <circle cx="46" cy="59" r="3" fill="#fff" opacity="0.95"/>
    <line x1="34" y1="62" x2="34" y2="70" stroke="#fff" stroke-width="2" opacity="0.7" stroke-linecap="round"/>
    <line x1="40" y1="62" x2="40" y2="67" stroke="#fff" stroke-width="2" opacity="0.7" stroke-linecap="round"/>
    <line x1="46" y1="62" x2="46" y2="70" stroke="#fff" stroke-width="2" opacity="0.7" stroke-linecap="round"/>
  </g>
  <!-- Text vertically centered at y=140 -->
  <text x="220" y="112" font-family="-apple-system, BlinkMacSystemFont, 'Segoe UI', Roboto, sans-serif" font-size="22" font-weight="700" fill="#ffffff" text-anchor="start">AuthVault 2FA</text>
  <text x="220" y="138" font-family="-apple-system, BlinkMacSystemFont, 'Segoe UI', Roboto, sans-serif" font-size="13" fill="rgba(255,255,255,0.7)" text-anchor="start">OTP Autofill for Ente Auth</text>
</svg>
