<svg xmlns="http://www.w3.org/2000/svg" width="440" height="280" viewBox="0 0 440 280">
  <defs>
    <linearGradient id="bg" x1="0%" y1="0%" x2="100%" y2="100%">
      <stop offset="0%" style="stop-color:#065F46"/>
      <stop offset="100%" style="stop-color:#064E3B"/>
    </linearGradient>
  </defs>
  <rect width="440" height="280" fill="url(#bg)"/>
  <!-- Icon (same as icon-source.svg, scaled 0.6x, centered left) -->
  <g transform="translate(108, 102) scale(0.6)">
    <rect x="4" y="4" width="40" height="40" fill="#ffffff"/>
    <rect x="10" y="10" width="28" height="28" fill="#065F46"/>
    <rect x="16" y="16" width="16" height="16" fill="#ffffff"/>
    <rect x="84" y="4" width="40" height="40" fill="#ffffff"/>
    <rect x="90" y="10" width="28" height="28" fill="#065F46"/>
    <rect x="96" y="16" width="16" height="16" fill="#ffffff"/>
    <rect x="4" y="84" width="40" height="40" fill="#ffffff"/>
    <rect x="10" y="90" width="28" height="28" fill="#065F46"/>
    <rect x="16" y="96" width="16" height="16" fill="#ffffff"/>
    <rect x="48" y="16" width="8" height="8" fill="#ffffff"/>
    <rect x="64" y="16" width="8" height="8" fill="#ffffff"/>
    <rect x="16" y="48" width="8" height="8" fill="#ffffff"/>
    <rect x="16" y="64" width="8" height="8" fill="#ffffff"/>
    <rect x="48" y="4" width="8" height="8" fill="#ffffff"/>
    <rect x="64" y="4" width="8" height="8" fill="#ffffff"/>
    <rect x="48" y="28" width="8" height="8" fill="#ffffff"/>
    <rect x="64" y="28" width="8" height="8" fill="#ffffff"/>
    <rect x="4" y="48" width="8" height="8" fill="#ffffff"/>
    <rect x="28" y="48" width="8" height="8" fill="#ffffff"/>
    <rect x="4" y="64" width="8" height="8" fill="#ffffff"/>
    <rect x="28" y="64" width="8" height="8" fill="#ffffff"/>
    <rect x="48" y="48" width="8" height="8" fill="#ffffff"/>
    <rect x="60" y="48" width="8" height="8" fill="#ffffff"/>
    <rect x="72" y="48" width="8" height="8" fill="#ffffff"/>
    <rect x="48" y="60" width="8" height="8" fill="#ffffff"/>
    <rect x="60" y="60" width="8" height="8" fill="#ffffff"/>
    <rect x="72" y="60" width="8" height="8" fill="#ffffff"/>
    <rect x="48" y="72" width="8" height="8" fill="#ffffff"/>
    <rect x="60" y="72" width="8" height="8" fill="#ffffff"/>
    <rect x="48" y="96" width="8" height="8" fill="#ffffff"/>
    <rect x="60" y="96" width="8" height="8" fill="#ffffff" opacity="0.8"/>
    <rect x="96" y="48" width="8" height="8" fill="#ffffff"/>
    <rect x="96" y="60" width="8" height="8" fill="#ffffff" opacity="0.8"/>
    <circle cx="100" cy="100" r="22" fill="#065F46"/>
    <circle cx="100" cy="100" r="18" fill="#ffffff"/>
    <circle cx="100" cy="100" r="13" fill="none" stroke="#065F46" stroke-width="2.5"/>
    <line x1="100" y1="100" x2="100" y2="92" stroke="#065F46" stroke-width="2.5" stroke-linecap="round"/>
    <line x1="100" y1="100" x2="107" y2="103" stroke="#065F46" stroke-width="2.5" stroke-linecap="round"/>
    <circle cx="100" cy="100" r="2" fill="#065F46"/>
  </g>
  <!-- Text -->
  <text x="230" y="132" font-family="-apple-system, BlinkMacSystemFont, 'Segoe UI', Roboto, sans-serif" font-size="22" font-weight="700" fill="#ffffff" text-anchor="start">AuthVault 2FA</text>
  <text x="230" y="158" font-family="-apple-system, BlinkMacSystemFont, 'Segoe UI', Roboto, sans-serif" font-size="13" fill="rgba(255,255,255,0.7)" text-anchor="start">OTP Autofill for Ente Auth</text>
</svg>
